<svg xmlns="http://www.w3.org/2000/svg" viewBox="0 0 418 418"><rect width="418" height="418" fill="#010108"/><path d="M214 64Q253.60 64 285.20 76Q316.80 88 335.40 111.40Q354 134.80 354 168.40L269.60 168.40Q269.60 151.20 254.40 140.60Q239.20 130 217.60 130Q186.40 130 170.40 146.60Q154.40 163.20 154.40 193.60L154.40 219.20Q154.40 249.60 170.40 266.20Q186.40 282.80 217.60 282.80Q239.20 282.80 254.40 272.60Q269.60 262.40 269.60 246.40L207.20 246.40L207.20 190.40L354 190.40L354 344L308.40 344L299.60 316.80Q262 348.80 201.20 348.80Q132.80 348.80 98.40 313Q64 277.20 64 206.40Q64 136.40 103 100.20Q142 64 214 64" fill="#FAFAFA"/></svg>